<svg width="21" height="12" viewBox="0 0 21 12" fill="none" xmlns="http://www.w3.org/2000/svg">
<path d="M10.5 0C3.61095 0 0 5.17714 0 6C0 6.82071 3.61095 12 10.5 12C17.388 12 21 6.82071 21 6C21 5.17714 17.388 0 10.5 0ZM10.5 10.6146C7.92225 10.6146 5.83275 8.54893 5.83275 6C5.83275 3.45107 7.92225 1.38321 10.5 1.38321C13.0777 1.38321 15.1662 3.45107 15.1662 6C15.1662 8.54893 13.0777 10.6146 10.5 10.6146ZM10.5 6C10.0726 5.52107 11.1961 3.69214 10.5 3.69214C9.2106 3.69214 8.16585 4.72607 8.16585 6C8.16585 7.27393 9.2106 8.30786 10.5 8.30786C11.7883 8.30786 12.8341 7.27393 12.8341 6C12.8341 5.41393 10.8633 6.40607 10.5 6Z" fill="#BDBDBD"/>
</svg>
