<svg width="23" height="18" viewBox="0 0 23 18" fill="none" xmlns="http://www.w3.org/2000/svg">
<path d="M17.157 6.74981H11.8133V8.71873C11.8133 10.1145 10.6777 11.2502 9.28203 11.2502C7.88633 11.2502 6.75079 10.1145 6.75079 8.71873V4.44337L4.46915 5.81457C3.79064 6.2189 3.3758 6.95373 3.3758 7.7413V9.40433L0.563301 11.0287C0.0254112 11.3381 -0.160917 12.0272 0.151973 12.5651L2.96447 17.4382C3.27384 17.9761 3.9629 18.159 4.50079 17.8496L8.13594 15.7506H12.9383C14.1793 15.7506 15.1883 14.7415 15.1883 13.5004H15.7508C16.373 13.5004 16.8758 12.9976 16.8758 12.3753V10.1251H17.157C17.6246 10.1251 18.0008 9.74889 18.0008 9.28127V7.59363C18.0008 7.12601 17.6246 6.74981 17.157 6.74981ZM22.3496 5.43485L19.5371 0.561787C19.2277 0.0238509 18.5387 -0.158977 18.0008 0.150424L14.3656 2.24943H10.7727C10.3508 2.24943 9.93946 2.36897 9.58086 2.59047L8.40313 3.3253C8.07266 3.52923 7.87579 3.89137 7.87579 4.27812V8.71873C7.87579 9.49574 8.50508 10.1251 9.28203 10.1251C10.059 10.1251 10.6883 9.49574 10.6883 8.71873V5.62471H17.157C18.2433 5.62471 19.1258 6.50721 19.1258 7.59363V8.59567L21.9383 6.97131C22.4762 6.6584 22.659 5.97279 22.3496 5.43485Z" fill="#BDBDBD"/>
</svg>
