<svg width="20" height="15" viewBox="0 0 20 15" fill="none" xmlns="http://www.w3.org/2000/svg">
<path fill-rule="evenodd" clip-rule="evenodd" d="M8.75 15C8.75 15 7.5 15 7.5 13.75C7.5 12.5 8.75 8.75 13.75 8.75C18.75 8.75 20 12.5 20 13.75C20 15 18.75 15 18.75 15H8.75ZM13.75 7.5C14.7446 7.5 15.6984 7.10491 16.4017 6.40165C17.1049 5.69839 17.5 4.74456 17.5 3.75C17.5 2.75544 17.1049 1.80161 16.4017 1.09835C15.6984 0.395088 14.7446 0 13.75 0C12.7554 0 11.8016 0.395088 11.0983 1.09835C10.3951 1.80161 10 2.75544 10 3.75C10 4.74456 10.3951 5.69839 11.0983 6.40165C11.8016 7.10491 12.7554 7.5 13.75 7.5ZM6.52 15C6.33469 14.6098 6.24228 14.1819 6.25 13.75C6.25 12.0562 7.1 10.3125 8.67 9.1C7.88636 8.85854 7.06994 8.74047 6.25 8.75C1.25 8.75 0 12.5 0 13.75C0 15 1.25 15 1.25 15H6.52ZM5.625 7.5C6.4538 7.5 7.24866 7.17076 7.83471 6.58471C8.42076 5.99866 8.75 5.2038 8.75 4.375C8.75 3.5462 8.42076 2.75134 7.83471 2.16529C7.24866 1.57924 6.4538 1.25 5.625 1.25C4.7962 1.25 4.00134 1.57924 3.41529 2.16529C2.82924 2.75134 2.5 3.5462 2.5 4.375C2.5 5.2038 2.82924 5.99866 3.41529 6.58471C4.00134 7.17076 4.7962 7.5 5.625 7.5Z" fill="#BDBDBD"/>
</svg>
