<svg width="20" height="20" viewBox="0 0 20 20" fill="none" xmlns="http://www.w3.org/2000/svg">
<path d="M19.7333 8.4801L17.5 7.81344C17.3456 7.27431 17.1332 6.7535 16.8667 6.2601L17.96 4.21344C18.001 4.13618 18.016 4.04776 18.0028 3.96129C17.9896 3.87482 17.9489 3.79492 17.8867 3.73344L16.2933 2.13344C16.2319 2.07121 16.1519 2.03048 16.0655 2.01727C15.979 2.00406 15.8906 2.01908 15.8133 2.0601L13.78 3.14677C13.2817 2.86721 12.7541 2.64363 12.2067 2.4801L11.54 0.273436C11.5118 0.192113 11.4585 0.121835 11.3878 0.0727166C11.3172 0.0235985 11.2327 -0.00182616 11.1467 0.000102112H8.89333C8.80676 0.000505162 8.72258 0.0285251 8.65303 0.0800842C8.58349 0.131643 8.53221 0.204051 8.50667 0.286769L7.84 2.48677C7.28801 2.64942 6.75584 2.87302 6.25333 3.15344L4.25333 2.07344C4.17608 2.03241 4.08766 2.01739 4.00119 2.0306C3.91472 2.04381 3.83481 2.08455 3.77333 2.14677L2.15333 3.72677C2.09111 3.78825 2.05037 3.86815 2.03716 3.95462C2.02395 4.04109 2.03898 4.12951 2.08 4.20677L3.16 6.20677C2.88004 6.70716 2.65645 7.23707 2.49333 7.78677L0.286667 8.45344C0.203949 8.47898 0.131541 8.53026 0.0799821 8.5998C0.028423 8.66935 0.000403049 8.75353 0 8.8401V11.0934C0.000403049 11.18 0.028423 11.2642 0.0799821 11.3337C0.131541 11.4033 0.203949 11.4546 0.286667 11.4801L2.50667 12.1468C2.67156 12.6873 2.89512 13.2082 3.17333 13.7001L2.08 15.7934C2.03898 15.8707 2.02395 15.9591 2.03716 16.0456C2.05037 16.1321 2.09111 16.212 2.15333 16.2734L3.74667 17.8668C3.80815 17.929 3.88805 17.9697 3.97452 17.9829C4.06099 17.9961 4.14941 17.9811 4.22667 17.9401L6.28667 16.8401C6.77398 17.1031 7.28801 17.3131 7.82 17.4668L8.48667 19.7134C8.51221 19.7962 8.56349 19.8686 8.63303 19.9201C8.70258 19.9717 8.78676 19.9997 8.87333 20.0001H11.1267C11.2132 19.9997 11.2974 19.9717 11.367 19.9201C11.4365 19.8686 11.4878 19.7962 11.5133 19.7134L12.18 17.4601C12.7074 17.3057 13.217 17.0956 13.7 16.8334L15.7733 17.9401C15.8506 17.9811 15.939 17.9961 16.0255 17.9829C16.1119 17.9697 16.1919 17.929 16.2533 17.8668L17.8467 16.2734C17.9089 16.212 17.9496 16.1321 17.9628 16.0456C17.976 15.9591 17.961 15.8707 17.92 15.7934L16.8133 13.7268C17.0782 13.2419 17.2906 12.7301 17.4467 12.2001L19.6933 11.5334C19.776 11.5079 19.8485 11.4566 19.9 11.3871C19.9516 11.3175 19.9796 11.2333 19.98 11.1468V8.87344C19.9839 8.79054 19.9624 8.70842 19.9183 8.63811C19.8742 8.5678 19.8097 8.51266 19.7333 8.4801ZM10.02 13.6668C9.2948 13.6668 8.58589 13.4517 7.98291 13.0488C7.37993 12.6459 6.90996 12.0733 6.63244 11.4033C6.35492 10.7333 6.28231 9.99604 6.42379 9.28477C6.56527 8.57351 6.91448 7.92017 7.42727 7.40738C7.94007 6.89459 8.5934 6.54537 9.30467 6.40389C10.0159 6.26241 10.7532 6.33502 11.4232 6.61254C12.0932 6.89007 12.6658 7.36003 13.0687 7.96301C13.4716 8.56599 13.6867 9.2749 13.6867 10.0001C13.6867 10.9726 13.3004 11.9052 12.6127 12.5928C11.9251 13.2805 10.9925 13.6668 10.02 13.6668Z" fill="#BDBDBD"/>
</svg>
