<svg width="20" height="20" viewBox="0 0 20 20" fill="none" xmlns="http://www.w3.org/2000/svg">
<path d="M9.88684 0.000905957C4.40341 -0.0731565 -0.0731565 4.40341 0.000905957 9.88684C0.074031 15.1458 4.35606 19.4278 9.61497 19.5009C15.0993 19.5759 19.575 15.0993 19.5 9.61591C19.4278 4.35606 15.1458 0.074031 9.88684 0.000905957ZM9.09981 9.02294L11.5162 6.25731C11.6471 6.10751 11.8322 6.01584 12.0307 6.00248C12.2292 5.98912 12.4248 6.05515 12.5747 6.18606C12.7245 6.31697 12.8161 6.50203 12.8295 6.70053C12.8429 6.89902 12.7768 7.09469 12.6459 7.2445L10.2295 10.0101C10.1647 10.0843 10.0859 10.145 9.99761 10.1887C9.90934 10.2324 9.81332 10.2583 9.71504 10.265C9.61675 10.2716 9.51813 10.2588 9.42479 10.2273C9.33146 10.1958 9.24524 10.1462 9.17106 10.0814C9.09689 10.0166 9.0362 9.93776 8.99248 9.84949C8.94875 9.76122 8.92284 9.6652 8.91623 9.56691C8.90961 9.46863 8.92242 9.37 8.95392 9.27667C8.98542 9.18333 9.03499 9.09711 9.09981 9.02294ZM7.27825 13.2815C7.13761 13.4221 6.94692 13.501 6.74809 13.501C6.54927 13.501 6.35858 13.4221 6.21794 13.2815L3.97028 11.0315C3.90066 10.9618 3.84545 10.8791 3.80779 10.7881C3.77013 10.6971 3.75078 10.5995 3.75082 10.501C3.75086 10.4025 3.77031 10.305 3.80804 10.214C3.84578 10.123 3.90107 10.0404 3.97075 9.97075C4.04043 9.90113 4.12315 9.84591 4.21417 9.80826C4.30519 9.7706 4.40273 9.75125 4.50124 9.75129C4.59974 9.75133 4.69727 9.77078 4.78826 9.80851C4.87925 9.84625 4.96191 9.90154 5.03153 9.97122L7.28153 12.2212C7.42164 12.3623 7.5 12.5532 7.49939 12.7521C7.49877 12.9509 7.41923 13.1413 7.27825 13.2815ZM15.5657 7.2445L10.3214 13.2445C10.2538 13.3219 10.1711 13.3846 10.0782 13.4287C9.98543 13.4728 9.88454 13.4974 9.78184 13.5009H9.75653C9.65798 13.5009 9.56039 13.4815 9.46934 13.4438C9.37829 13.4061 9.29557 13.3508 9.22591 13.2811L6.97872 11.0311C6.83811 10.8903 6.75917 10.6995 6.75926 10.5006C6.75935 10.3016 6.83846 10.1109 6.97919 9.97028C7.11992 9.82967 7.31074 9.75073 7.50968 9.75082C7.70861 9.75091 7.89936 9.83002 8.03997 9.97075L9.43684 11.369C9.47316 11.4054 9.51654 11.4338 9.56432 11.4527C9.61209 11.4716 9.66323 11.4804 9.71456 11.4787C9.76589 11.477 9.81633 11.4647 9.86273 11.4427C9.90914 11.4207 9.95053 11.3894 9.98434 11.3507L14.4375 6.25731C14.5684 6.10751 14.7534 6.01584 14.9519 6.00248C15.1504 5.98912 15.3461 6.05515 15.4959 6.18606C15.6457 6.31697 15.7374 6.50203 15.7507 6.70053C15.7641 6.89902 15.6981 7.09469 15.5672 7.2445H15.5657Z" fill="#BDBDBD"/>
</svg>
